<?xml version="1.0" encoding="UTF-8" standalone="no"?>
<!DOCTYPE svg PUBLIC "-//W3C//DTD SVG 1.1//EN"
 "http://www.w3.org/Graphics/SVG/1.1/DTD/svg11.dtd">
<!-- Generated by graphviz version 2.40.1 (20161225.0304)
 -->
<!-- Title: inheritance35da459877 Pages: 1 -->
<svg width="434pt" height="27pt"
 viewBox="0.00 0.00 434.00 27.00" xmlns="http://www.w3.org/2000/svg" xmlns:xlink="http://www.w3.org/1999/xlink">
<g id="graph0" class="graph" transform="scale(1 1) rotate(0) translate(4 23)">
<title>inheritance35da459877</title>
<!-- enum.Enum -->
<g id="node1" class="node">
<title>enum.Enum</title>
<g id="a_node1"><a xlink:title="Generic enumeration.">
<polygon fill="#ffffff" stroke="#000000" stroke-width=".5" points="75,-19 0,-19 0,0 75,0 75,-19"/>
<text text-anchor="middle" x="37.5" y="-7" font-family="Vera Sans, DejaVu Sans, Liberation Sans, Arial, Helvetica, sans" font-size="10.00" fill="#000000">enum.Enum</text>
</a>
</g>
</g>
<!-- enum.IntEnum -->
<g id="node2" class="node">
<title>enum.IntEnum</title>
<g id="a_node2"><a xlink:title="Enum where members are also (and must be) ints">
<polygon fill="#ffffff" stroke="#000000" stroke-width=".5" points="199,-19 111,-19 111,0 199,0 199,-19"/>
<text text-anchor="middle" x="155" y="-7" font-family="Vera Sans, DejaVu Sans, Liberation Sans, Arial, Helvetica, sans" font-size="10.00" fill="#000000">enum.IntEnum</text>
</a>
</g>
</g>
<!-- enum.Enum&#45;&gt;enum.IntEnum -->
<g id="edge1" class="edge">
<title>enum.Enum&#45;&gt;enum.IntEnum</title>
<path fill="none" stroke="#000000" stroke-width=".5" d="M75.0008,-9.5C84.8128,-9.5 95.5387,-9.5 105.8581,-9.5"/>
<polygon fill="#000000" stroke="#000000" stroke-width=".5" points="105.8856,-11.2501 110.8856,-9.5 105.8856,-7.7501 105.8856,-11.2501"/>
</g>
<!-- onnxcustom.utils.nvprof2json.Cbids -->
<g id="node3" class="node">
<title>onnxcustom.utils.nvprof2json.Cbids</title>
<g id="a_node3"><a xlink:href="../onnxcustom/utils/nvprof2json.html#onnxcustom.utils.nvprof2json.Cbids" xlink:title="List of events." target="_top">
<polygon fill="#ffffff" stroke="#000000" stroke-width=".5" points="426,-19 235,-19 235,0 426,0 426,-19"/>
<text text-anchor="middle" x="330.5" y="-7" font-family="Vera Sans, DejaVu Sans, Liberation Sans, Arial, Helvetica, sans" font-size="10.00" fill="#000000">onnxcustom.utils.nvprof2json.Cbids</text>
</a>
</g>
</g>
<!-- enum.IntEnum&#45;&gt;onnxcustom.utils.nvprof2json.Cbids -->
<g id="edge2" class="edge">
<title>enum.IntEnum&#45;&gt;onnxcustom.utils.nvprof2json.Cbids</title>
<path fill="none" stroke="#000000" stroke-width=".5" d="M199.2861,-9.5C208.7106,-9.5 219.03,-9.5 229.6102,-9.5"/>
<polygon fill="#000000" stroke="#000000" stroke-width=".5" points="229.8223,-11.2501 234.8223,-9.5 229.8222,-7.7501 229.8223,-11.2501"/>
</g>
</g>
</svg>
