<?xml version="1.0" encoding="UTF-8" standalone="no"?>
<!DOCTYPE svg PUBLIC "-//W3C//DTD SVG 1.1//EN"
 "http://www.w3.org/Graphics/SVG/1.1/DTD/svg11.dtd">
<!-- Generated by graphviz version 2.40.1 (20161225.0304)
 -->
<!-- Title: inheritanceaf98eaf730 Pages: 1 -->
<svg width="576pt" height="11pt"
 viewBox="0.00 0.00 576.00 11.18" xmlns="http://www.w3.org/2000/svg" xmlns:xlink="http://www.w3.org/1999/xlink">
<g id="graph0" class="graph" transform="scale(.4141 .4141) rotate(0) translate(4 23)">
<title>inheritanceaf98eaf730</title>
<!-- IPython.core.magic.Magics -->
<g id="node1" class="node">
<title>IPython.core.magic.Magics</title>
<g id="a_node1"><a xlink:title="Base class for implementing magic functions.">
<polygon fill="#ffffff" stroke="#000000" stroke-width=".5" points="787,-19 640,-19 640,0 787,0 787,-19"/>
<text text-anchor="middle" x="713.5" y="-7" font-family="Vera Sans, DejaVu Sans, Liberation Sans, Arial, Helvetica, sans" font-size="10.00" fill="#000000">IPython.core.magic.Magics</text>
</a>
</g>
</g>
<!-- pyquickhelper.ipythonhelper.magic_class.MagicClassWithHelpers -->
<g id="node4" class="node">
<title>pyquickhelper.ipythonhelper.magic_class.MagicClassWithHelpers</title>
<g id="a_node4"><a xlink:title="Provides some functions reused in others classes inherited from *Magics*.">
<polygon fill="#ffffff" stroke="#000000" stroke-width=".5" points="1158,-19 823,-19 823,0 1158,0 1158,-19"/>
<text text-anchor="middle" x="990.5" y="-7" font-family="Vera Sans, DejaVu Sans, Liberation Sans, Arial, Helvetica, sans" font-size="10.00" fill="#000000">pyquickhelper.ipythonhelper.magic_class.MagicClassWithHelpers</text>
</a>
</g>
</g>
<!-- IPython.core.magic.Magics&#45;&gt;pyquickhelper.ipythonhelper.magic_class.MagicClassWithHelpers -->
<g id="edge3" class="edge">
<title>IPython.core.magic.Magics&#45;&gt;pyquickhelper.ipythonhelper.magic_class.MagicClassWithHelpers</title>
<path fill="none" stroke="#000000" stroke-width=".5" d="M787.0037,-9.5C796.7832,-9.5 807.1218,-9.5 817.7474,-9.5"/>
<polygon fill="#000000" stroke="#000000" stroke-width=".5" points="817.9855,-11.2501 822.9855,-9.5 817.9855,-7.7501 817.9855,-11.2501"/>
</g>
<!-- traitlets.config.configurable.Configurable -->
<g id="node2" class="node">
<title>traitlets.config.configurable.Configurable</title>
<polygon fill="#ffffff" stroke="#000000" stroke-width=".5" points="604,-19 389,-19 389,0 604,0 604,-19"/>
<text text-anchor="middle" x="496.5" y="-7" font-family="Vera Sans, DejaVu Sans, Liberation Sans, Arial, Helvetica, sans" font-size="10.00" fill="#000000">traitlets.config.configurable.Configurable</text>
</g>
<!-- traitlets.config.configurable.Configurable&#45;&gt;IPython.core.magic.Magics -->
<g id="edge1" class="edge">
<title>traitlets.config.configurable.Configurable&#45;&gt;IPython.core.magic.Magics</title>
<path fill="none" stroke="#000000" stroke-width=".5" d="M604.0464,-9.5C614.3924,-9.5 624.75,-9.5 634.7428,-9.5"/>
<polygon fill="#000000" stroke="#000000" stroke-width=".5" points="634.9332,-11.2501 639.9332,-9.5 634.9332,-7.7501 634.9332,-11.2501"/>
</g>
<!-- mlprodict.nb_helper.OnnxNotebook -->
<g id="node3" class="node">
<title>mlprodict.nb_helper.OnnxNotebook</title>
<g id="a_node3"><a xlink:href="../mlprodict/nb_helper.html#mlprodict.nb_helper.OnnxNotebook" xlink:title="Defines magic commands to help with notebooks" target="_top">
<polygon fill="#ffffff" stroke="#000000" stroke-width=".5" points="1383,-19 1194,-19 1194,0 1383,0 1383,-19"/>
<text text-anchor="middle" x="1288.5" y="-7" font-family="Vera Sans, DejaVu Sans, Liberation Sans, Arial, Helvetica, sans" font-size="10.00" fill="#000000">mlprodict.nb_helper.OnnxNotebook</text>
</a>
</g>
</g>
<!-- pyquickhelper.ipythonhelper.magic_class.MagicClassWithHelpers&#45;&gt;mlprodict.nb_helper.OnnxNotebook -->
<g id="edge2" class="edge">
<title>pyquickhelper.ipythonhelper.magic_class.MagicClassWithHelpers&#45;&gt;mlprodict.nb_helper.OnnxNotebook</title>
<path fill="none" stroke="#000000" stroke-width=".5" d="M1158.2264,-9.5C1168.595,-9.5 1178.8406,-9.5 1188.7582,-9.5"/>
<polygon fill="#000000" stroke="#000000" stroke-width=".5" points="1188.9135,-11.2501 1193.9135,-9.5 1188.9135,-7.7501 1188.9135,-11.2501"/>
</g>
<!-- traitlets.traitlets.HasTraits -->
<g id="node5" class="node">
<title>traitlets.traitlets.HasTraits</title>
<polygon fill="#ffffff" stroke="#000000" stroke-width=".5" points="353,-19 209,-19 209,0 353,0 353,-19"/>
<text text-anchor="middle" x="281" y="-7" font-family="Vera Sans, DejaVu Sans, Liberation Sans, Arial, Helvetica, sans" font-size="10.00" fill="#000000">traitlets.traitlets.HasTraits</text>
</g>
<!-- traitlets.traitlets.HasTraits&#45;&gt;traitlets.config.configurable.Configurable -->
<g id="edge4" class="edge">
<title>traitlets.traitlets.HasTraits&#45;&gt;traitlets.config.configurable.Configurable</title>
<path fill="none" stroke="#000000" stroke-width=".5" d="M353.058,-9.5C362.9422,-9.5 373.2782,-9.5 383.6774,-9.5"/>
<polygon fill="#000000" stroke="#000000" stroke-width=".5" points="383.7858,-11.2501 388.7858,-9.5 383.7857,-7.7501 383.7858,-11.2501"/>
</g>
<!-- traitlets.traitlets.HasDescriptors -->
<g id="node6" class="node">
<title>traitlets.traitlets.HasDescriptors</title>
<g id="a_node6"><a xlink:title="The base class for all classes that have descriptors.">
<polygon fill="#ffffff" stroke="#000000" stroke-width=".5" points="173,-19 0,-19 0,0 173,0 173,-19"/>
<text text-anchor="middle" x="86.5" y="-7" font-family="Vera Sans, DejaVu Sans, Liberation Sans, Arial, Helvetica, sans" font-size="10.00" fill="#000000">traitlets.traitlets.HasDescriptors</text>
</a>
</g>
</g>
<!-- traitlets.traitlets.HasDescriptors&#45;&gt;traitlets.traitlets.HasTraits -->
<g id="edge5" class="edge">
<title>traitlets.traitlets.HasDescriptors&#45;&gt;traitlets.traitlets.HasTraits</title>
<path fill="none" stroke="#000000" stroke-width=".5" d="M173.2266,-9.5C183.4059,-9.5 193.7408,-9.5 203.7781,-9.5"/>
<polygon fill="#000000" stroke="#000000" stroke-width=".5" points="203.9975,-11.2501 208.9975,-9.5 203.9974,-7.7501 203.9975,-11.2501"/>
</g>
</g>
</svg>
