<?xml version="1.0" encoding="UTF-8" standalone="no"?>
<!DOCTYPE svg PUBLIC "-//W3C//DTD SVG 1.1//EN"
 "http://www.w3.org/Graphics/SVG/1.1/DTD/svg11.dtd">
<!-- Generated by graphviz version 2.43.0 (0)
 -->
<!-- Title: G Pages: 1 -->
<svg width="214pt" height="391pt"
 viewBox="0.00 0.00 213.50 391.00" xmlns="http://www.w3.org/2000/svg" xmlns:xlink="http://www.w3.org/1999/xlink">
<g id="graph0" class="graph" transform="scale(1 1) rotate(0) translate(4 387)">
<title>G</title>
<!-- in_X -->
<g id="node1" class="node">
<title>in_X</title>
<path fill="#e6f4ea" stroke="#34a853" stroke-width="1.4" d="M63,-383C63,-383 22,-383 22,-383 16,-383 10,-377 10,-371 10,-371 10,-354 10,-354 10,-348 16,-342 22,-342 22,-342 63,-342 63,-342 69,-342 75,-348 75,-354 75,-354 75,-371 75,-371 75,-377 69,-383 63,-383"/>
<text text-anchor="start" x="39" y="-367.5" font-family="Helvetica,sans-Serif" font-weight="bold" font-size="10.00">X</text>
<text text-anchor="start" x="21.5" y="-352.3" font-family="Helvetica,sans-Serif" font-size="9.00" fill="#5f6368">float [?,?]</text>
</g>
<!-- op_0_ReduceSum -->
<g id="node4" class="node">
<title>op_0_ReduceSum</title>
<path fill="#e8f0fe" stroke="#4285f4" stroke-width="1.4" d="M73,-293.5C73,-293.5 12,-293.5 12,-293.5 6,-293.5 0,-287.5 0,-281.5 0,-281.5 0,-269.5 0,-269.5 0,-263.5 6,-257.5 12,-257.5 12,-257.5 73,-257.5 73,-257.5 79,-257.5 85,-263.5 85,-269.5 85,-269.5 85,-281.5 85,-281.5 85,-287.5 79,-293.5 73,-293.5"/>
<text text-anchor="start" x="9" y="-274" font-family="Helvetica,sans-Serif" font-weight="bold" font-size="10.00">ReduceSum</text>
</g>
<!-- in_X&#45;&gt;op_0_ReduceSum -->
<g id="edge1" class="edge">
<title>in_X&#45;&gt;op_0_ReduceSum</title>
<path fill="none" stroke="#5f6368" d="M42.5,-341.79C42.5,-329.57 42.5,-313.79 42.5,-300.8"/>
<polygon fill="#5f6368" stroke="#5f6368" points="44.95,-300.52 42.5,-293.52 40.05,-300.52 44.95,-300.52"/>
<text text-anchor="middle" x="46" y="-316.8" font-family="Helvetica,sans-Serif" font-size="9.00" fill="#5f6368">X</text>
</g>
<!-- init_zero -->
<g id="node2" class="node">
<title>init_zero</title>
<path fill="#f1f3f4" stroke="#5f6368" stroke-width="1.4" d="M193.5,-296C193.5,-296 115.5,-296 115.5,-296 109.5,-296 103.5,-290 103.5,-284 103.5,-284 103.5,-267 103.5,-267 103.5,-261 109.5,-255 115.5,-255 115.5,-255 193.5,-255 193.5,-255 199.5,-255 205.5,-261 205.5,-267 205.5,-267 205.5,-284 205.5,-284 205.5,-290 199.5,-296 193.5,-296"/>
<text text-anchor="start" x="142" y="-280.5" font-family="Helvetica,sans-Serif" font-weight="bold" font-size="10.00">zero</text>
<text text-anchor="start" x="114.5" y="-265.3" font-family="Helvetica,sans-Serif" font-size="9.00" fill="#5f6368">initializer float [1]</text>
</g>
<!-- op_1_Greater -->
<g id="node5" class="node">
<title>op_1_Greater</title>
<path fill="#e8f0fe" stroke="#4285f4" stroke-width="1.4" d="M117.5,-209C117.5,-209 79.5,-209 79.5,-209 73.5,-209 67.5,-203 67.5,-197 67.5,-197 67.5,-185 67.5,-185 67.5,-179 73.5,-173 79.5,-173 79.5,-173 117.5,-173 117.5,-173 123.5,-173 129.5,-179 129.5,-185 129.5,-185 129.5,-197 129.5,-197 129.5,-203 123.5,-209 117.5,-209"/>
<text text-anchor="start" x="76.5" y="-189.5" font-family="Helvetica,sans-Serif" font-weight="bold" font-size="10.00">Greater</text>
</g>
<!-- init_zero&#45;&gt;op_1_Greater -->
<g id="edge3" class="edge">
<title>init_zero&#45;&gt;op_1_Greater</title>
<path fill="none" stroke="#5f6368" d="M141.23,-254.95C133.11,-242.99 122.69,-227.63 114.17,-215.08"/>
<polygon fill="#5f6368" stroke="#5f6368" points="116.11,-213.59 110.16,-209.17 112.06,-216.34 116.11,-213.59"/>
<text text-anchor="middle" x="137" y="-229.8" font-family="Helvetica,sans-Serif" font-size="9.00" fill="#5f6368">zero</text>
</g>
<!-- out_Y -->
<g id="node3" class="node">
<title>out_Y</title>
<path fill="#fce8e6" stroke="#ea4335" stroke-width="1.4" d="M115.5,-41C115.5,-41 81.5,-41 81.5,-41 75.5,-41 69.5,-35 69.5,-29 69.5,-29 69.5,-12 69.5,-12 69.5,-6 75.5,0 81.5,0 81.5,0 115.5,0 115.5,0 121.5,0 127.5,-6 127.5,-12 127.5,-12 127.5,-29 127.5,-29 127.5,-35 121.5,-41 115.5,-41"/>
<text text-anchor="start" x="94.5" y="-25.5" font-family="Helvetica,sans-Serif" font-weight="bold" font-size="10.00">Y</text>
<text text-anchor="start" x="80.5" y="-10.3" font-family="Helvetica,sans-Serif" font-size="9.00" fill="#5f6368">float [?]</text>
</g>
<!-- op_0_ReduceSum&#45;&gt;op_1_Greater -->
<g id="edge2" class="edge">
<title>op_0_ReduceSum&#45;&gt;op_1_Greater</title>
<path fill="none" stroke="#5f6368" d="M54.1,-257.41C62.44,-245.13 73.76,-228.44 82.89,-214.99"/>
<polygon fill="#5f6368" stroke="#5f6368" points="85.01,-216.24 86.91,-209.07 80.95,-213.49 85.01,-216.24"/>
<text text-anchor="middle" x="86.5" y="-229.8" font-family="Helvetica,sans-Serif" font-size="9.00" fill="#5f6368">rsum</text>
</g>
<!-- op_2_If -->
<g id="node6" class="node">
<title>op_2_If</title>
<path fill="#e8f0fe" stroke="#4285f4" stroke-width="1.4" d="M149.5,-127C149.5,-127 47.5,-127 47.5,-127 41.5,-127 35.5,-121 35.5,-115 35.5,-115 35.5,-99 35.5,-99 35.5,-93 41.5,-87 47.5,-87 47.5,-87 149.5,-87 149.5,-87 155.5,-87 161.5,-93 161.5,-99 161.5,-99 161.5,-115 161.5,-115 161.5,-121 155.5,-127 149.5,-127"/>
<text text-anchor="start" x="94" y="-114" font-family="Helvetica,sans-Serif" font-weight="bold" font-size="10.00">If</text>
<text text-anchor="start" x="46.5" y="-104.8" font-family="Helvetica,sans-Serif" font-size="9.00" fill="#5f6368">else_branch=&lt;graph&gt;</text>
<text text-anchor="start" x="44.5" y="-95.8" font-family="Helvetica,sans-Serif" font-size="9.00" fill="#5f6368">then_branch=&lt;graph&gt;</text>
</g>
<!-- op_1_Greater&#45;&gt;op_2_If -->
<g id="edge4" class="edge">
<title>op_1_Greater&#45;&gt;op_2_If</title>
<path fill="none" stroke="#5f6368" d="M98.5,-172.61C98.5,-161.45 98.5,-146.75 98.5,-134.19"/>
<polygon fill="#5f6368" stroke="#5f6368" points="100.95,-134.08 98.5,-127.08 96.05,-134.08 100.95,-134.08"/>
<text text-anchor="middle" x="110" y="-147.8" font-family="Helvetica,sans-Serif" font-size="9.00" fill="#5f6368">cond</text>
</g>
<!-- op_2_If&#45;&gt;out_Y -->
<g id="edge5" class="edge">
<title>op_2_If&#45;&gt;out_Y</title>
<path fill="none" stroke="#5f6368" d="M98.5,-86.83C98.5,-75.43 98.5,-60.8 98.5,-48.28"/>
<polygon fill="#5f6368" stroke="#5f6368" points="100.95,-48.18 98.5,-41.18 96.05,-48.18 100.95,-48.18"/>
<text text-anchor="middle" x="101.5" y="-61.8" font-family="Helvetica,sans-Serif" font-size="9.00" fill="#5f6368">Y</text>
</g>
</g>
</svg>
