<?xml version="1.0" encoding="UTF-8" standalone="no"?>
<!DOCTYPE svg PUBLIC "-//W3C//DTD SVG 1.1//EN"
 "http://www.w3.org/Graphics/SVG/1.1/DTD/svg11.dtd">
<!-- Generated by graphviz version 2.43.0 (0)
 -->
<!-- Title: %3 Pages: 1 -->
<svg width="612pt" height="541pt"
 viewBox="0.00 0.00 612.00 541.00" xmlns="http://www.w3.org/2000/svg" xmlns:xlink="http://www.w3.org/1999/xlink">
<g id="graph0" class="graph" transform="scale(1 1) rotate(0) translate(4 537)">
<title>%3</title>
<!-- I_0 -->
<g id="node1" class="node">
<title>I_0</title>
<path fill="#aaeeaa" stroke="#888888" d="M269,-533C269,-533 165,-533 165,-533 159,-533 153,-527 153,-521 153,-521 153,-507 153,-507 153,-501 159,-495 165,-495 165,-495 269,-495 269,-495 275,-495 281,-501 281,-507 281,-507 281,-521 281,-521 281,-527 275,-533 269,-533"/>
<text text-anchor="middle" x="217" y="-517.8" font-family="Times,serif" font-size="14.00" fill="#222222">X</text>
<text text-anchor="middle" x="217" y="-502.8" font-family="Times,serif" font-size="14.00" fill="#222222">FLOAT(batch,4)</text>
</g>
<!-- Sub_2 -->
<g id="node3" class="node">
<title>Sub_2</title>
<path fill="#cccccc" stroke="#888888" d="M422,-471C422,-471 12,-471 12,-471 6,-471 0,-465 0,-459 0,-459 0,-445 0,-445 0,-439 6,-433 12,-433 12,-433 422,-433 422,-433 428,-433 434,-439 434,-445 434,-445 434,-459 434,-459 434,-465 428,-471 422,-471"/>
<text text-anchor="middle" x="217" y="-455.8" font-family="Times,serif" font-size="14.00" fill="#222222">Sub</text>
<text text-anchor="middle" x="217" y="-440.8" font-family="Times,serif" font-size="14.00" fill="#222222">(., [&#45;0.11890265, 0.053688034, 0.25009614, 0.29648674])</text>
</g>
<!-- I_0&#45;&gt;Sub_2 -->
<g id="edge1" class="edge">
<title>I_0&#45;&gt;Sub_2</title>
<path fill="none" stroke="black" d="M217,-495C217,-490.8 217,-486.24 217,-481.71"/>
<polygon fill="black" stroke="black" points="217,-471.4 221.5,-481.4 217,-476.4 217,-481.4 217,-481.4 217,-481.4 217,-476.4 212.5,-481.4 217,-471.4 217,-471.4"/>
<text text-anchor="middle" x="246" y="-481.4" font-family="Times,serif" font-size="7.00">FLOAT(batch,4)</text>
</g>
<!-- i_1 -->
<g id="node2" class="node">
<title>i_1</title>
<path fill="#cccc00" stroke="#888888" d="M592,-416C592,-416 440,-416 440,-416 434,-416 428,-410 428,-404 428,-404 428,-390 428,-390 428,-384 434,-378 440,-378 440,-378 592,-378 592,-378 598,-378 604,-384 604,-390 604,-390 604,-404 604,-404 604,-410 598,-416 592,-416"/>
<text text-anchor="middle" x="516" y="-400.8" font-family="Times,serif" font-size="14.00" fill="#222222">main__clf__init1_s1x4_</text>
<text text-anchor="middle" x="516" y="-385.8" font-family="Times,serif" font-size="14.00" fill="#222222">FLOAT(1, 4)</text>
</g>
<!-- Gemm_4 -->
<g id="node5" class="node">
<title>Gemm_4</title>
<path fill="#cccccc" stroke="#888888" d="M450,-354C450,-354 282,-354 282,-354 276,-354 270,-348 270,-342 270,-342 270,-330 270,-330 270,-324 276,-318 282,-318 282,-318 450,-318 450,-318 456,-318 462,-324 462,-330 462,-330 462,-342 462,-342 462,-348 456,-354 450,-354"/>
<text text-anchor="middle" x="366" y="-332.3" font-family="Times,serif" font-size="14.00" fill="#222222">Gemm(., ., [&#45;0.6392022])</text>
</g>
<!-- i_1&#45;&gt;Gemm_4 -->
<g id="edge4" class="edge">
<title>i_1&#45;&gt;Gemm_4</title>
<path fill="none" stroke="black" d="M470.18,-377.98C453.98,-371.6 435.62,-364.38 418.87,-357.8"/>
<polygon fill="black" stroke="black" points="409.23,-354 420.19,-353.48 413.89,-355.83 418.54,-357.67 418.54,-357.67 418.54,-357.67 413.89,-355.83 416.89,-361.85 409.23,-354 409.23,-354"/>
<text text-anchor="middle" x="468" y="-364.4" font-family="Times,serif" font-size="7.00">FLOAT(1, 4)</text>
</g>
<!-- Div_3 -->
<g id="node4" class="node">
<title>Div_3</title>
<path fill="#cccccc" stroke="#888888" d="M401.5,-416C401.5,-416 32.5,-416 32.5,-416 26.5,-416 20.5,-410 20.5,-404 20.5,-404 20.5,-390 20.5,-390 20.5,-384 26.5,-378 32.5,-378 32.5,-378 401.5,-378 401.5,-378 407.5,-378 413.5,-384 413.5,-390 413.5,-390 413.5,-404 413.5,-404 413.5,-410 407.5,-416 401.5,-416"/>
<text text-anchor="middle" x="217" y="-400.8" font-family="Times,serif" font-size="14.00" fill="#222222">Div</text>
<text text-anchor="middle" x="217" y="-385.8" font-family="Times,serif" font-size="14.00" fill="#222222">(., [0.8643964, 0.91257733, 1.0399438, 0.9712117])</text>
</g>
<!-- Sub_2&#45;&gt;Div_3 -->
<g id="edge2" class="edge">
<title>Sub_2&#45;&gt;Div_3</title>
<path fill="none" stroke="black" d="M217,-432.76C217,-430.66 217,-428.47 217,-426.27"/>
<polygon fill="black" stroke="black" points="217,-416.09 221.5,-426.09 217,-421.09 217,-426.09 217,-426.09 217,-426.09 217,-421.09 212.5,-426.09 217,-416.09 217,-416.09"/>
</g>
<!-- Div_3&#45;&gt;Gemm_4 -->
<g id="edge3" class="edge">
<title>Div_3&#45;&gt;Gemm_4</title>
<path fill="none" stroke="black" d="M262.51,-377.98C278.61,-371.6 296.85,-364.38 313.48,-357.8"/>
<polygon fill="black" stroke="black" points="323.06,-354 315.42,-361.87 318.41,-355.85 313.76,-357.69 313.76,-357.69 313.76,-357.69 318.41,-355.85 312.1,-353.5 323.06,-354 323.06,-354"/>
</g>
<!-- Sigmoid_5 -->
<g id="node6" class="node">
<title>Sigmoid_5</title>
<path fill="#cccccc" stroke="#888888" d="M399,-301C399,-301 333,-301 333,-301 327,-301 321,-295 321,-289 321,-289 321,-277 321,-277 321,-271 327,-265 333,-265 333,-265 399,-265 399,-265 405,-265 411,-271 411,-277 411,-277 411,-289 411,-289 411,-295 405,-301 399,-301"/>
<text text-anchor="middle" x="366" y="-279.3" font-family="Times,serif" font-size="14.00" fill="#222222">Sigmoid(.)</text>
</g>
<!-- Gemm_4&#45;&gt;Sigmoid_5 -->
<g id="edge5" class="edge">
<title>Gemm_4&#45;&gt;Sigmoid_5</title>
<path fill="none" stroke="black" d="M366,-317.73C366,-315.66 366,-313.5 366,-311.32"/>
<polygon fill="black" stroke="black" points="366,-301.25 370.5,-311.25 366,-306.25 366,-311.25 366,-311.25 366,-311.25 366,-306.25 361.5,-311.25 366,-301.25 366,-301.25"/>
</g>
<!-- Sub_6 -->
<g id="node7" class="node">
<title>Sub_6</title>
<path fill="#cccccc" stroke="#888888" d="M368.5,-248C368.5,-248 291.5,-248 291.5,-248 285.5,-248 279.5,-242 279.5,-236 279.5,-236 279.5,-224 279.5,-224 279.5,-218 285.5,-212 291.5,-212 291.5,-212 368.5,-212 368.5,-212 374.5,-212 380.5,-218 380.5,-224 380.5,-224 380.5,-236 380.5,-236 380.5,-242 374.5,-248 368.5,-248"/>
<text text-anchor="middle" x="330" y="-226.3" font-family="Times,serif" font-size="14.00" fill="#222222">Sub([1.0], .)</text>
</g>
<!-- Sigmoid_5&#45;&gt;Sub_6 -->
<g id="edge6" class="edge">
<title>Sigmoid_5&#45;&gt;Sub_6</title>
<path fill="none" stroke="black" d="M353.81,-264.73C351.94,-262.08 349.96,-259.28 347.99,-256.49"/>
<polygon fill="black" stroke="black" points="342.18,-248.25 351.62,-253.82 345.06,-252.33 347.94,-256.42 347.94,-256.42 347.94,-256.42 345.06,-252.33 344.27,-259.01 342.18,-248.25 342.18,-248.25"/>
</g>
<!-- Concat_7 -->
<g id="node8" class="node">
<title>Concat_7</title>
<path fill="#cccccc" stroke="#888888" d="M433,-195C433,-195 299,-195 299,-195 293,-195 287,-189 287,-183 287,-183 287,-171 287,-171 287,-165 293,-159 299,-159 299,-159 433,-159 433,-159 439,-159 445,-165 445,-171 445,-171 445,-183 445,-183 445,-189 439,-195 433,-195"/>
<text text-anchor="middle" x="366" y="-173.3" font-family="Times,serif" font-size="14.00" fill="#222222">Concat(., ., axis=&#45;1)</text>
</g>
<!-- Sigmoid_5&#45;&gt;Concat_7 -->
<g id="edge8" class="edge">
<title>Sigmoid_5&#45;&gt;Concat_7</title>
<path fill="none" stroke="black" d="M379.11,-264.88C382.33,-259.73 385.33,-253.87 387,-248 391.37,-232.61 391.37,-227.39 387,-212 386.24,-209.34 385.21,-206.68 384.01,-204.09"/>
<polygon fill="black" stroke="black" points="379.11,-195.12 387.85,-201.73 381.51,-199.51 383.91,-203.89 383.91,-203.89 383.91,-203.89 381.51,-199.51 379.96,-206.05 379.11,-195.12 379.11,-195.12"/>
</g>
<!-- Sub_6&#45;&gt;Concat_7 -->
<g id="edge7" class="edge">
<title>Sub_6&#45;&gt;Concat_7</title>
<path fill="none" stroke="black" d="M342.19,-211.73C344.06,-209.08 346.04,-206.28 348.01,-203.49"/>
<polygon fill="black" stroke="black" points="353.82,-195.25 351.73,-206.01 350.94,-199.33 348.06,-203.42 348.06,-203.42 348.06,-203.42 350.94,-199.33 344.38,-200.82 353.82,-195.25 353.82,-195.25"/>
</g>
<!-- ArgMax_8 -->
<g id="node9" class="node">
<title>ArgMax_8</title>
<path fill="#cccccc" stroke="#888888" d="M357,-142C357,-142 235,-142 235,-142 229,-142 223,-136 223,-130 223,-130 223,-118 223,-118 223,-112 229,-106 235,-106 235,-106 357,-106 357,-106 363,-106 369,-112 369,-118 369,-118 369,-130 369,-130 369,-136 363,-142 357,-142"/>
<text text-anchor="middle" x="296" y="-120.3" font-family="Times,serif" font-size="14.00" fill="#222222">ArgMax(., axis=1)</text>
</g>
<!-- Concat_7&#45;&gt;ArgMax_8 -->
<g id="edge9" class="edge">
<title>Concat_7&#45;&gt;ArgMax_8</title>
<path fill="none" stroke="black" d="M342.3,-158.73C337.63,-155.33 332.65,-151.7 327.76,-148.14"/>
<polygon fill="black" stroke="black" points="319.67,-142.25 330.41,-144.5 323.72,-145.19 327.76,-148.14 327.76,-148.14 327.76,-148.14 323.72,-145.19 325.11,-151.77 319.67,-142.25 319.67,-142.25"/>
</g>
<!-- O_11 -->
<g id="node12" class="node">
<title>O_11</title>
<path fill="#aaaaee" stroke="#888888" d="M478.5,-142C478.5,-142 395.5,-142 395.5,-142 389.5,-142 383.5,-136 383.5,-130 383.5,-130 383.5,-118 383.5,-118 383.5,-112 389.5,-106 395.5,-106 395.5,-106 478.5,-106 478.5,-106 484.5,-106 490.5,-112 490.5,-118 490.5,-118 490.5,-130 490.5,-130 490.5,-136 484.5,-142 478.5,-142"/>
<text text-anchor="middle" x="437" y="-120.3" font-family="Times,serif" font-size="14.00" fill="#222222">probabilities</text>
</g>
<!-- Concat_7&#45;&gt;O_11 -->
<g id="edge12" class="edge">
<title>Concat_7&#45;&gt;O_11</title>
<path fill="none" stroke="black" d="M390.04,-158.73C394.78,-155.33 399.83,-151.7 404.79,-148.14"/>
<polygon fill="black" stroke="black" points="412.99,-142.25 407.49,-151.74 408.93,-145.17 404.87,-148.08 404.87,-148.08 404.87,-148.08 408.93,-145.17 402.24,-144.43 412.99,-142.25 412.99,-142.25"/>
</g>
<!-- Gather_9 -->
<g id="node10" class="node">
<title>Gather_9</title>
<path fill="#cccccc" stroke="#888888" d="M377,-89C377,-89 215,-89 215,-89 209,-89 203,-83 203,-77 203,-77 203,-65 203,-65 203,-59 209,-53 215,-53 215,-53 377,-53 377,-53 383,-53 389,-59 389,-65 389,-65 389,-77 389,-77 389,-83 383,-89 377,-89"/>
<text text-anchor="middle" x="296" y="-67.3" font-family="Times,serif" font-size="14.00" fill="#222222">Gather([0, 1], ., axis=0)</text>
</g>
<!-- ArgMax_8&#45;&gt;Gather_9 -->
<g id="edge10" class="edge">
<title>ArgMax_8&#45;&gt;Gather_9</title>
<path fill="none" stroke="black" d="M296,-105.73C296,-103.66 296,-101.5 296,-99.32"/>
<polygon fill="black" stroke="black" points="296,-89.25 300.5,-99.25 296,-94.25 296,-99.25 296,-99.25 296,-99.25 296,-94.25 291.5,-99.25 296,-89.25 296,-89.25"/>
</g>
<!-- O_10 -->
<g id="node11" class="node">
<title>O_10</title>
<path fill="#aaaaee" stroke="#888888" d="M311,-36C311,-36 281,-36 281,-36 275,-36 269,-30 269,-24 269,-24 269,-12 269,-12 269,-6 275,0 281,0 281,0 311,0 311,0 317,0 323,-6 323,-12 323,-12 323,-24 323,-24 323,-30 317,-36 311,-36"/>
<text text-anchor="middle" x="296" y="-14.3" font-family="Times,serif" font-size="14.00" fill="#222222">label</text>
</g>
<!-- Gather_9&#45;&gt;O_10 -->
<g id="edge11" class="edge">
<title>Gather_9&#45;&gt;O_10</title>
<path fill="none" stroke="black" d="M296,-52.73C296,-50.66 296,-48.5 296,-46.32"/>
<polygon fill="black" stroke="black" points="296,-36.25 300.5,-46.25 296,-41.25 296,-46.25 296,-46.25 296,-46.25 296,-41.25 291.5,-46.25 296,-36.25 296,-36.25"/>
</g>
</g>
</svg>
