<?xml version="1.0" encoding="UTF-8" standalone="no"?>
<!DOCTYPE svg PUBLIC "-//W3C//DTD SVG 1.1//EN"
 "http://www.w3.org/Graphics/SVG/1.1/DTD/svg11.dtd">
<!-- Generated by graphviz version 2.43.0 (0)
 -->
<!-- Title: %3 Pages: 1 -->
<svg width="300pt" height="281pt"
 viewBox="0.00 0.00 300.00 281.00" xmlns="http://www.w3.org/2000/svg" xmlns:xlink="http://www.w3.org/1999/xlink">
<g id="graph0" class="graph" transform="scale(1 1) rotate(0) translate(4 277)">
<title>%3</title>
<!-- I_0 -->
<g id="node1" class="node">
<title>I_0</title>
<path fill="#aaeeaa" stroke="#888888" d="M102,-273C102,-273 37,-273 37,-273 31,-273 25,-267 25,-261 25,-261 25,-247 25,-247 25,-241 31,-235 37,-235 37,-235 102,-235 102,-235 108,-235 114,-241 114,-247 114,-247 114,-261 114,-261 114,-267 108,-273 102,-273"/>
<text text-anchor="middle" x="69.5" y="-257.8" font-family="Times,serif" font-size="14.00" fill="#222222">X0</text>
<text text-anchor="middle" x="69.5" y="-242.8" font-family="Times,serif" font-size="14.00" fill="#222222">FLOAT(i,j)</text>
</g>
<!-- Unsqueeze_2 -->
<g id="node3" class="node">
<title>Unsqueeze_2</title>
<path fill="#eeeeee" stroke="#888888" d="M127,-211C127,-211 12,-211 12,-211 6,-211 0,-205 0,-199 0,-199 0,-187 0,-187 0,-181 6,-175 12,-175 12,-175 127,-175 127,-175 133,-175 139,-181 139,-187 139,-187 139,-199 139,-199 139,-205 133,-211 127,-211"/>
<text text-anchor="middle" x="69.5" y="-189.3" font-family="Times,serif" font-size="14.00" fill="#222222">Unsqueeze(., [0])</text>
</g>
<!-- I_0&#45;&gt;Unsqueeze_2 -->
<g id="edge1" class="edge">
<title>I_0&#45;&gt;Unsqueeze_2</title>
<path fill="none" stroke="black" d="M69.5,-234.98C69.5,-230.71 69.5,-226.06 69.5,-221.47"/>
<polygon fill="black" stroke="black" points="69.5,-211.1 74,-221.1 69.5,-216.1 69.5,-221.1 69.5,-221.1 69.5,-221.1 69.5,-216.1 65,-221.1 69.5,-211.1 69.5,-211.1"/>
<text text-anchor="middle" x="88" y="-221.4" font-family="Times,serif" font-size="7.00">FLOAT(i,j)</text>
</g>
<!-- I_1 -->
<g id="node2" class="node">
<title>I_1</title>
<path fill="#aaeeaa" stroke="#888888" d="M256.5,-273C256.5,-273 188.5,-273 188.5,-273 182.5,-273 176.5,-267 176.5,-261 176.5,-261 176.5,-247 176.5,-247 176.5,-241 182.5,-235 188.5,-235 188.5,-235 256.5,-235 256.5,-235 262.5,-235 268.5,-241 268.5,-247 268.5,-247 268.5,-261 268.5,-261 268.5,-267 262.5,-273 256.5,-273"/>
<text text-anchor="middle" x="222.5" y="-257.8" font-family="Times,serif" font-size="14.00" fill="#222222">X1</text>
<text text-anchor="middle" x="222.5" y="-242.8" font-family="Times,serif" font-size="14.00" fill="#222222">FLOAT(j,k)</text>
</g>
<!-- Unsqueeze_3 -->
<g id="node4" class="node">
<title>Unsqueeze_3</title>
<path fill="#eeeeee" stroke="#888888" d="M280,-211C280,-211 165,-211 165,-211 159,-211 153,-205 153,-199 153,-199 153,-187 153,-187 153,-181 159,-175 165,-175 165,-175 280,-175 280,-175 286,-175 292,-181 292,-187 292,-187 292,-199 292,-199 292,-205 286,-211 280,-211"/>
<text text-anchor="middle" x="222.5" y="-189.3" font-family="Times,serif" font-size="14.00" fill="#222222">Unsqueeze(., [0])</text>
</g>
<!-- I_1&#45;&gt;Unsqueeze_3 -->
<g id="edge2" class="edge">
<title>I_1&#45;&gt;Unsqueeze_3</title>
<path fill="none" stroke="black" d="M222.5,-234.98C222.5,-230.71 222.5,-226.06 222.5,-221.47"/>
<polygon fill="black" stroke="black" points="222.5,-211.1 227,-221.1 222.5,-216.1 222.5,-221.1 222.5,-221.1 222.5,-221.1 222.5,-216.1 218,-221.1 222.5,-211.1 222.5,-211.1"/>
<text text-anchor="middle" x="242.5" y="-221.4" font-family="Times,serif" font-size="7.00">FLOAT(j,k)</text>
</g>
<!-- MatMul_4 -->
<g id="node5" class="node">
<title>MatMul_4</title>
<path fill="#ee9999" stroke="#888888" d="M184,-151C184,-151 107,-151 107,-151 101,-151 95,-145 95,-139 95,-139 95,-127 95,-127 95,-121 101,-115 107,-115 107,-115 184,-115 184,-115 190,-115 196,-121 196,-127 196,-127 196,-139 196,-139 196,-145 190,-151 184,-151"/>
<text text-anchor="middle" x="145.5" y="-129.3" font-family="Times,serif" font-size="14.00" fill="#222222">MatMul(., .)</text>
</g>
<!-- Unsqueeze_2&#45;&gt;MatMul_4 -->
<g id="edge3" class="edge">
<title>Unsqueeze_2&#45;&gt;MatMul_4</title>
<path fill="none" stroke="black" d="M91.89,-174.91C99.09,-169.41 107.2,-163.23 114.89,-157.36"/>
<polygon fill="black" stroke="black" points="123.01,-151.17 117.79,-160.81 119.03,-154.2 115.06,-157.23 115.06,-157.23 115.06,-157.23 119.03,-154.2 112.33,-153.66 123.01,-151.17 123.01,-151.17"/>
<text text-anchor="middle" x="134.5" y="-161.4" font-family="Times,serif" font-size="7.00">FLOAT(1,i,j)</text>
</g>
<!-- Unsqueeze_3&#45;&gt;MatMul_4 -->
<g id="edge4" class="edge">
<title>Unsqueeze_3&#45;&gt;MatMul_4</title>
<path fill="none" stroke="black" d="M199.81,-174.91C192.52,-169.41 184.3,-163.23 176.51,-157.36"/>
<polygon fill="black" stroke="black" points="168.29,-151.17 178.99,-153.59 172.28,-154.17 176.28,-157.18 176.28,-157.18 176.28,-157.18 172.28,-154.17 173.57,-160.78 168.29,-151.17 168.29,-151.17"/>
<text text-anchor="middle" x="212.5" y="-161.4" font-family="Times,serif" font-size="7.00">FLOAT(1,j,k)</text>
</g>
<!-- Squeeze_5 -->
<g id="node6" class="node">
<title>Squeeze_5</title>
<path fill="#eeeeee" stroke="#888888" d="M193.5,-91C193.5,-91 97.5,-91 97.5,-91 91.5,-91 85.5,-85 85.5,-79 85.5,-79 85.5,-67 85.5,-67 85.5,-61 91.5,-55 97.5,-55 97.5,-55 193.5,-55 193.5,-55 199.5,-55 205.5,-61 205.5,-67 205.5,-67 205.5,-79 205.5,-79 205.5,-85 199.5,-91 193.5,-91"/>
<text text-anchor="middle" x="145.5" y="-69.3" font-family="Times,serif" font-size="14.00" fill="#222222">Squeeze(., [0])</text>
</g>
<!-- MatMul_4&#45;&gt;Squeeze_5 -->
<g id="edge5" class="edge">
<title>MatMul_4&#45;&gt;Squeeze_5</title>
<path fill="none" stroke="black" d="M145.5,-114.91C145.5,-110.7 145.5,-106.09 145.5,-101.52"/>
<polygon fill="black" stroke="black" points="145.5,-91.17 150,-101.17 145.5,-96.17 145.5,-101.17 145.5,-101.17 145.5,-101.17 145.5,-96.17 141,-101.17 145.5,-91.17 145.5,-91.17"/>
<text text-anchor="middle" x="168.5" y="-101.4" font-family="Times,serif" font-size="7.00">FLOAT(1,i,k)</text>
</g>
<!-- O_6 -->
<g id="node7" class="node">
<title>O_6</title>
<path fill="#aaaaee" stroke="#888888" d="M171,-38C171,-38 120,-38 120,-38 114,-38 108,-32 108,-26 108,-26 108,-12 108,-12 108,-6 114,0 120,0 120,0 171,0 171,0 177,0 183,-6 183,-12 183,-12 183,-26 183,-26 183,-32 177,-38 171,-38"/>
<text text-anchor="middle" x="145.5" y="-22.8" font-family="Times,serif" font-size="14.00" fill="#222222">Z</text>
<text text-anchor="middle" x="145.5" y="-7.8" font-family="Times,serif" font-size="14.00" fill="#222222">FLOAT()</text>
</g>
<!-- Squeeze_5&#45;&gt;O_6 -->
<g id="edge6" class="edge">
<title>Squeeze_5&#45;&gt;O_6</title>
<path fill="none" stroke="black" d="M145.5,-54.97C145.5,-52.89 145.5,-50.72 145.5,-48.53"/>
<polygon fill="black" stroke="black" points="145.5,-38.32 150,-48.32 145.5,-43.32 145.5,-48.32 145.5,-48.32 145.5,-48.32 145.5,-43.32 141,-48.32 145.5,-38.32 145.5,-38.32"/>
</g>
</g>
</svg>
