<?xml version="1.0" encoding="UTF-8" standalone="no"?>
<!DOCTYPE svg PUBLIC "-//W3C//DTD SVG 1.1//EN"
 "http://www.w3.org/Graphics/SVG/1.1/DTD/svg11.dtd">
<!-- Generated by graphviz version 2.43.0 (0)
 -->
<!-- Title: %3 Pages: 1 -->
<svg width="338pt" height="283pt"
 viewBox="0.00 0.00 338.00 283.00" xmlns="http://www.w3.org/2000/svg" xmlns:xlink="http://www.w3.org/1999/xlink">
<g id="graph0" class="graph" transform="scale(1 1) rotate(0) translate(4 279)">
<title>%3</title>
<!-- I_0 -->
<g id="node1" class="node">
<title>I_0</title>
<path fill="#aaeeaa" stroke="#888888" d="M146,-275C146,-275 12,-275 12,-275 6,-275 0,-269 0,-263 0,-263 0,-249 0,-249 0,-243 6,-237 12,-237 12,-237 146,-237 146,-237 152,-237 158,-243 158,-249 158,-249 158,-263 158,-263 158,-269 152,-275 146,-275"/>
<text text-anchor="middle" x="79" y="-259.8" font-family="Times,serif" font-size="14.00" fill="#222222">X</text>
<text text-anchor="middle" x="79" y="-244.8" font-family="Times,serif" font-size="14.00" fill="#222222">FLOAT(batch,seq,4)</text>
</g>
<!-- Add_3 -->
<g id="node4" class="node">
<title>Add_3</title>
<path fill="#cccccc" stroke="#888888" d="M189.5,-212C189.5,-212 140.5,-212 140.5,-212 134.5,-212 128.5,-206 128.5,-200 128.5,-200 128.5,-188 128.5,-188 128.5,-182 134.5,-176 140.5,-176 140.5,-176 189.5,-176 189.5,-176 195.5,-176 201.5,-182 201.5,-188 201.5,-188 201.5,-200 201.5,-200 201.5,-206 195.5,-212 189.5,-212"/>
<text text-anchor="middle" x="165" y="-190.3" font-family="Times,serif" font-size="14.00" fill="#222222">Add(., .)</text>
</g>
<!-- I_0&#45;&gt;Add_3 -->
<g id="edge1" class="edge">
<title>I_0&#45;&gt;Add_3</title>
<path fill="none" stroke="black" d="M104.8,-237C113.35,-231.03 122.99,-224.31 132,-218.02"/>
<polygon fill="black" stroke="black" points="140.4,-212.17 134.77,-221.58 136.29,-215.03 132.19,-217.89 132.19,-217.89 132.19,-217.89 136.29,-215.03 129.62,-214.2 140.4,-212.17 140.4,-212.17"/>
<text text-anchor="middle" x="164.5" y="-223.4" font-family="Times,serif" font-size="7.00">FLOAT(batch,seq,4)</text>
</g>
<!-- I_1 -->
<g id="node2" class="node">
<title>I_1</title>
<path fill="#aaeeaa" stroke="#888888" d="M318,-275C318,-275 184,-275 184,-275 178,-275 172,-269 172,-263 172,-263 172,-249 172,-249 172,-243 178,-237 184,-237 184,-237 318,-237 318,-237 324,-237 330,-243 330,-249 330,-249 330,-263 330,-263 330,-269 324,-275 318,-275"/>
<text text-anchor="middle" x="251" y="-259.8" font-family="Times,serif" font-size="14.00" fill="#222222">Y</text>
<text text-anchor="middle" x="251" y="-244.8" font-family="Times,serif" font-size="14.00" fill="#222222">FLOAT(batch,seq,4)</text>
</g>
<!-- I_1&#45;&gt;Add_3 -->
<g id="edge2" class="edge">
<title>I_1&#45;&gt;Add_3</title>
<path fill="none" stroke="black" d="M226.25,-236.82C219.11,-231.65 211.28,-226.06 204,-221 202.58,-220.01 201.12,-219.01 199.64,-217.99"/>
<polygon fill="black" stroke="black" points="191.11,-212.2 201.91,-214.09 195.24,-215.01 199.38,-217.82 199.38,-217.82 199.38,-217.82 195.24,-215.01 196.86,-221.54 191.11,-212.2 191.11,-212.2"/>
<text text-anchor="middle" x="250.5" y="-223.4" font-family="Times,serif" font-size="7.00">FLOAT(batch,seq,4)</text>
</g>
<!-- i_2 -->
<g id="node3" class="node">
<title>i_2</title>
<path fill="#cccc00" stroke="#888888" d="M306,-213C306,-213 228,-213 228,-213 222,-213 216,-207 216,-201 216,-201 216,-187 216,-187 216,-181 222,-175 228,-175 228,-175 306,-175 306,-175 312,-175 318,-181 318,-187 318,-187 318,-201 318,-201 318,-207 312,-213 306,-213"/>
<text text-anchor="middle" x="267" y="-197.8" font-family="Times,serif" font-size="14.00" fill="#222222">W</text>
<text text-anchor="middle" x="267" y="-182.8" font-family="Times,serif" font-size="14.00" fill="#222222">FLOAT(4, 2)</text>
</g>
<!-- MatMul_4 -->
<g id="node5" class="node">
<title>MatMul_4</title>
<path fill="#ee9999" stroke="#888888" d="M254.5,-151C254.5,-151 177.5,-151 177.5,-151 171.5,-151 165.5,-145 165.5,-139 165.5,-139 165.5,-127 165.5,-127 165.5,-121 171.5,-115 177.5,-115 177.5,-115 254.5,-115 254.5,-115 260.5,-115 266.5,-121 266.5,-127 266.5,-127 266.5,-139 266.5,-139 266.5,-145 260.5,-151 254.5,-151"/>
<text text-anchor="middle" x="216" y="-129.3" font-family="Times,serif" font-size="14.00" fill="#222222">MatMul(., .)</text>
</g>
<!-- i_2&#45;&gt;MatMul_4 -->
<g id="edge4" class="edge">
<title>i_2&#45;&gt;MatMul_4</title>
<path fill="none" stroke="black" d="M259.2,-174.78C256.42,-169.39 252.98,-163.68 249,-159 248.78,-158.74 248.56,-158.49 248.34,-158.23"/>
<polygon fill="black" stroke="black" points="241.19,-151.19 251.47,-155.01 244.75,-154.7 248.32,-158.21 248.32,-158.21 248.32,-158.21 244.75,-154.7 245.16,-161.42 241.19,-151.19 241.19,-151.19"/>
<text text-anchor="middle" x="276" y="-161.4" font-family="Times,serif" font-size="7.00">FLOAT(4, 2)</text>
</g>
<!-- Add_3&#45;&gt;MatMul_4 -->
<g id="edge3" class="edge">
<title>Add_3&#45;&gt;MatMul_4</title>
<path fill="none" stroke="black" d="M168.61,-175.98C170.43,-170.17 173.11,-163.91 177,-159 177.22,-158.73 177.43,-158.46 177.66,-158.19"/>
<polygon fill="black" stroke="black" points="184.96,-151.01 180.98,-161.23 181.4,-154.52 177.83,-158.02 177.83,-158.02 177.83,-158.02 181.4,-154.52 174.68,-154.81 184.96,-151.01 184.96,-151.01"/>
<text text-anchor="middle" x="213.5" y="-161.4" font-family="Times,serif" font-size="7.00">FLOAT(batch,seq,4)</text>
</g>
<!-- Relu_5 -->
<g id="node6" class="node">
<title>Relu_5</title>
<path fill="#cccccc" stroke="#888888" d="M236,-91C236,-91 196,-91 196,-91 190,-91 184,-85 184,-79 184,-79 184,-67 184,-67 184,-61 190,-55 196,-55 196,-55 236,-55 236,-55 242,-55 248,-61 248,-67 248,-67 248,-79 248,-79 248,-85 242,-91 236,-91"/>
<text text-anchor="middle" x="216" y="-69.3" font-family="Times,serif" font-size="14.00" fill="#222222">Relu(.)</text>
</g>
<!-- MatMul_4&#45;&gt;Relu_5 -->
<g id="edge5" class="edge">
<title>MatMul_4&#45;&gt;Relu_5</title>
<path fill="none" stroke="black" d="M216,-114.91C216,-110.7 216,-106.09 216,-101.52"/>
<polygon fill="black" stroke="black" points="216,-91.17 220.5,-101.17 216,-96.17 216,-101.17 216,-101.17 216,-101.17 216,-96.17 211.5,-101.17 216,-91.17 216,-91.17"/>
<text text-anchor="middle" x="252.5" y="-101.4" font-family="Times,serif" font-size="7.00">FLOAT(batch,seq,2)</text>
</g>
<!-- O_6 -->
<g id="node7" class="node">
<title>O_6</title>
<path fill="#aaaaee" stroke="#888888" d="M283,-38C283,-38 149,-38 149,-38 143,-38 137,-32 137,-26 137,-26 137,-12 137,-12 137,-6 143,0 149,0 149,0 283,0 283,0 289,0 295,-6 295,-12 295,-12 295,-26 295,-26 295,-32 289,-38 283,-38"/>
<text text-anchor="middle" x="216" y="-22.8" font-family="Times,serif" font-size="14.00" fill="#222222">Z</text>
<text text-anchor="middle" x="216" y="-7.8" font-family="Times,serif" font-size="14.00" fill="#222222">FLOAT(batch,seq,2)</text>
</g>
<!-- Relu_5&#45;&gt;O_6 -->
<g id="edge6" class="edge">
<title>Relu_5&#45;&gt;O_6</title>
<path fill="none" stroke="black" d="M216,-54.97C216,-52.89 216,-50.72 216,-48.53"/>
<polygon fill="black" stroke="black" points="216,-38.32 220.5,-48.32 216,-43.32 216,-48.32 216,-48.32 216,-48.32 216,-43.32 211.5,-48.32 216,-38.32 216,-38.32"/>
</g>
</g>
</svg>
