<?xml version="1.0" encoding="UTF-8" standalone="no"?>
<!DOCTYPE svg PUBLIC "-//W3C//DTD SVG 1.1//EN"
 "http://www.w3.org/Graphics/SVG/1.1/DTD/svg11.dtd">
<!-- Generated by graphviz version 2.43.0 (0)
 -->
<!-- Title: %3 Pages: 1 -->
<svg width="615pt" height="283pt"
 viewBox="0.00 0.00 615.00 283.00" xmlns="http://www.w3.org/2000/svg" xmlns:xlink="http://www.w3.org/1999/xlink">
<g id="graph0" class="graph" transform="scale(1 1) rotate(0) translate(4 279)">
<title>%3</title>
<!-- I_0 -->
<g id="node1" class="node">
<title>I_0</title>
<path fill="#aaeeaa" stroke="#888888" d="M95,-275C95,-275 12,-275 12,-275 6,-275 0,-269 0,-263 0,-263 0,-249 0,-249 0,-243 6,-237 12,-237 12,-237 95,-237 95,-237 101,-237 107,-243 107,-249 107,-249 107,-263 107,-263 107,-269 101,-275 95,-275"/>
<text text-anchor="middle" x="53.5" y="-259.8" font-family="Times,serif" font-size="14.00" fill="#222222">x</text>
<text text-anchor="middle" x="53.5" y="-244.8" font-family="Times,serif" font-size="14.00" fill="#222222">FLOAT(3,10)</text>
</g>
<!-- Gemm_4 -->
<g id="node5" class="node">
<title>Gemm_4</title>
<path fill="#cccccc" stroke="#888888" d="M215,-213C215,-213 134,-213 134,-213 128,-213 122,-207 122,-201 122,-201 122,-189 122,-189 122,-183 128,-177 134,-177 134,-177 215,-177 215,-177 221,-177 227,-183 227,-189 227,-189 227,-201 227,-201 227,-207 221,-213 215,-213"/>
<text text-anchor="middle" x="174.5" y="-191.3" font-family="Times,serif" font-size="14.00" fill="#222222">Gemm(., ., .)</text>
</g>
<!-- I_0&#45;&gt;Gemm_4 -->
<g id="edge1" class="edge">
<title>I_0&#45;&gt;Gemm_4</title>
<path fill="none" stroke="black" d="M90.46,-236.98C102.99,-230.87 117.11,-223.98 130.15,-217.62"/>
<polygon fill="black" stroke="black" points="139.42,-213.1 132.4,-221.53 134.93,-215.3 130.43,-217.49 130.43,-217.49 130.43,-217.49 134.93,-215.3 128.46,-213.44 139.42,-213.1 139.42,-213.1"/>
<text text-anchor="middle" x="144.5" y="-223.4" font-family="Times,serif" font-size="7.00">FLOAT(3,10)</text>
</g>
<!-- i_1 -->
<g id="node2" class="node">
<title>i_1</title>
<path fill="#cccc00" stroke="#888888" d="M216,-275C216,-275 133,-275 133,-275 127,-275 121,-269 121,-263 121,-263 121,-249 121,-249 121,-243 127,-237 133,-237 133,-237 216,-237 216,-237 222,-237 228,-243 228,-249 228,-249 228,-263 228,-263 228,-269 222,-275 216,-275"/>
<text text-anchor="middle" x="174.5" y="-259.8" font-family="Times,serif" font-size="14.00" fill="#222222">layers.0.bias</text>
<text text-anchor="middle" x="174.5" y="-244.8" font-family="Times,serif" font-size="14.00" fill="#222222">FLOAT(32)</text>
</g>
<!-- i_1&#45;&gt;Gemm_4 -->
<g id="edge3" class="edge">
<title>i_1&#45;&gt;Gemm_4</title>
<path fill="none" stroke="black" d="M174.5,-236.98C174.5,-232.71 174.5,-228.06 174.5,-223.47"/>
<polygon fill="black" stroke="black" points="174.5,-213.1 179,-223.1 174.5,-218.1 174.5,-223.1 174.5,-223.1 174.5,-223.1 174.5,-218.1 170,-223.1 174.5,-213.1 174.5,-213.1"/>
<text text-anchor="middle" x="194.5" y="-223.4" font-family="Times,serif" font-size="7.00">FLOAT(32)</text>
</g>
<!-- i_2 -->
<g id="node3" class="node">
<title>i_2</title>
<path fill="#cccc00" stroke="#888888" d="M595,-275C595,-275 254,-275 254,-275 248,-275 242,-269 242,-263 242,-263 242,-249 242,-249 242,-243 248,-237 254,-237 254,-237 595,-237 595,-237 601,-237 607,-243 607,-249 607,-249 607,-263 607,-263 607,-269 601,-275 595,-275"/>
<text text-anchor="middle" x="424.5" y="-259.8" font-family="Times,serif" font-size="14.00" fill="#222222">GemmTransposePattern&#45;&#45;p_layers_0_weight::T10</text>
<text text-anchor="middle" x="424.5" y="-244.8" font-family="Times,serif" font-size="14.00" fill="#222222">FLOAT(32, 10)</text>
</g>
<!-- i_2&#45;&gt;Gemm_4 -->
<g id="edge2" class="edge">
<title>i_2&#45;&gt;Gemm_4</title>
<path fill="none" stroke="black" d="M348.13,-236.98C312.61,-228.59 270.87,-218.74 237.22,-210.8"/>
<polygon fill="black" stroke="black" points="227.06,-208.4 237.82,-206.32 231.92,-209.55 236.79,-210.7 236.79,-210.7 236.79,-210.7 231.92,-209.55 235.75,-215.08 227.06,-208.4 227.06,-208.4"/>
<text text-anchor="middle" x="333" y="-223.4" font-family="Times,serif" font-size="7.00">FLOAT(32, 10)</text>
</g>
<!-- i_3 -->
<g id="node4" class="node">
<title>i_3</title>
<path fill="#cccc00" stroke="#888888" d="M573,-153C573,-153 232,-153 232,-153 226,-153 220,-147 220,-141 220,-141 220,-127 220,-127 220,-121 226,-115 232,-115 232,-115 573,-115 573,-115 579,-115 585,-121 585,-127 585,-127 585,-141 585,-141 585,-147 579,-153 573,-153"/>
<text text-anchor="middle" x="402.5" y="-137.8" font-family="Times,serif" font-size="14.00" fill="#222222">GemmTransposePattern&#45;&#45;p_layers_2_weight::T10</text>
<text text-anchor="middle" x="402.5" y="-122.8" font-family="Times,serif" font-size="14.00" fill="#222222">FLOAT(1, 32)</text>
</g>
<!-- Gemm_6 -->
<g id="node7" class="node">
<title>Gemm_6</title>
<path fill="#cccccc" stroke="#888888" d="M377,-91C377,-91 200,-91 200,-91 194,-91 188,-85 188,-79 188,-79 188,-67 188,-67 188,-61 194,-55 200,-55 200,-55 377,-55 377,-55 383,-55 389,-61 389,-67 389,-67 389,-79 389,-79 389,-85 383,-91 377,-91"/>
<text text-anchor="middle" x="288.5" y="-69.3" font-family="Times,serif" font-size="14.00" fill="#222222">Gemm(., ., [&#45;0.14222133])</text>
</g>
<!-- i_3&#45;&gt;Gemm_6 -->
<g id="edge6" class="edge">
<title>i_3&#45;&gt;Gemm_6</title>
<path fill="none" stroke="black" d="M367.68,-114.98C355.99,-108.93 342.83,-102.12 330.64,-95.81"/>
<polygon fill="black" stroke="black" points="321.55,-91.1 332.5,-91.7 325.99,-93.4 330.43,-95.7 330.43,-95.7 330.43,-95.7 325.99,-93.4 328.36,-99.7 321.55,-91.1 321.55,-91.1"/>
<text text-anchor="middle" x="373" y="-101.4" font-family="Times,serif" font-size="7.00">FLOAT(1, 32)</text>
</g>
<!-- Relu_5 -->
<g id="node6" class="node">
<title>Relu_5</title>
<path fill="#cccccc" stroke="#888888" d="M194.5,-152C194.5,-152 154.5,-152 154.5,-152 148.5,-152 142.5,-146 142.5,-140 142.5,-140 142.5,-128 142.5,-128 142.5,-122 148.5,-116 154.5,-116 154.5,-116 194.5,-116 194.5,-116 200.5,-116 206.5,-122 206.5,-128 206.5,-128 206.5,-140 206.5,-140 206.5,-146 200.5,-152 194.5,-152"/>
<text text-anchor="middle" x="174.5" y="-130.3" font-family="Times,serif" font-size="14.00" fill="#222222">Relu(.)</text>
</g>
<!-- Gemm_4&#45;&gt;Relu_5 -->
<g id="edge4" class="edge">
<title>Gemm_4&#45;&gt;Relu_5</title>
<path fill="none" stroke="black" d="M174.5,-176.93C174.5,-172.45 174.5,-167.49 174.5,-162.61"/>
<polygon fill="black" stroke="black" points="174.5,-152.23 179,-162.23 174.5,-157.23 174.5,-162.23 174.5,-162.23 174.5,-162.23 174.5,-157.23 170,-162.23 174.5,-152.23 174.5,-152.23"/>
<text text-anchor="middle" x="197.5" y="-163.4" font-family="Times,serif" font-size="7.00">FLOAT(3,32)</text>
</g>
<!-- Relu_5&#45;&gt;Gemm_6 -->
<g id="edge5" class="edge">
<title>Relu_5&#45;&gt;Gemm_6</title>
<path fill="none" stroke="black" d="M206.56,-116.41C218.97,-109.98 233.35,-102.54 246.57,-95.7"/>
<polygon fill="black" stroke="black" points="255.49,-91.08 248.68,-99.68 251.05,-93.38 246.61,-95.68 246.61,-95.68 246.61,-95.68 251.05,-93.38 244.54,-91.68 255.49,-91.08 255.49,-91.08"/>
<text text-anchor="middle" x="261.5" y="-101.4" font-family="Times,serif" font-size="7.00">FLOAT(3,32)</text>
</g>
<!-- O_7 -->
<g id="node8" class="node">
<title>O_7</title>
<path fill="#aaaaee" stroke="#888888" d="M325.5,-38C325.5,-38 251.5,-38 251.5,-38 245.5,-38 239.5,-32 239.5,-26 239.5,-26 239.5,-12 239.5,-12 239.5,-6 245.5,0 251.5,0 251.5,0 325.5,0 325.5,0 331.5,0 337.5,-6 337.5,-12 337.5,-12 337.5,-26 337.5,-26 337.5,-32 331.5,-38 325.5,-38"/>
<text text-anchor="middle" x="288.5" y="-22.8" font-family="Times,serif" font-size="14.00" fill="#222222">output_0</text>
<text text-anchor="middle" x="288.5" y="-7.8" font-family="Times,serif" font-size="14.00" fill="#222222">FLOAT(3,1)</text>
</g>
<!-- Gemm_6&#45;&gt;O_7 -->
<g id="edge7" class="edge">
<title>Gemm_6&#45;&gt;O_7</title>
<path fill="none" stroke="black" d="M288.5,-54.97C288.5,-52.89 288.5,-50.72 288.5,-48.53"/>
<polygon fill="black" stroke="black" points="288.5,-38.32 293,-48.32 288.5,-43.32 288.5,-48.32 288.5,-48.32 288.5,-48.32 288.5,-43.32 284,-48.32 288.5,-38.32 288.5,-38.32"/>
</g>
</g>
</svg>
