<?xml version="1.0" encoding="UTF-8" standalone="no"?>
<!DOCTYPE svg PUBLIC "-//W3C//DTD SVG 1.1//EN"
 "http://www.w3.org/Graphics/SVG/1.1/DTD/svg11.dtd">
<!-- Generated by graphviz version 2.43.0 (0)
 -->
<!-- Title: %3 Pages: 1 -->
<svg width="360pt" height="143pt"
 viewBox="0.00 0.00 360.00 142.94" xmlns="http://www.w3.org/2000/svg" xmlns:xlink="http://www.w3.org/1999/xlink">
<g id="graph0" class="graph" transform="scale(0.29 0.29) rotate(0) translate(4 481)">
<title>%3</title>
<!-- 0 -->
<g id="node1" class="node">
<title>0</title>
<polygon fill="none" stroke="black" points="229.5,-440.5 229.5,-476.5 453.5,-476.5 453.5,-440.5 229.5,-440.5"/>
<text text-anchor="middle" x="341.5" y="-454.8" font-family="Times,serif" font-size="14.00">input 0\nbac\n[ 1 0 2 &#45;1 &#45;1 &#45;1]</text>
</g>
<!-- 140521461239200 -->
<g id="node2" class="node">
<title>140521461239200</title>
<polygon fill="none" stroke="black" points="314.5,-385.5 314.5,-421.5 368.5,-421.5 368.5,-385.5 314.5,-385.5"/>
<text text-anchor="middle" x="341.5" y="-399.8" font-family="Times,serif" font-size="14.00">id\n</text>
</g>
<!-- 0&#45;&gt;140521461239200 -->
<g id="edge1" class="edge">
<title>0&#45;&gt;140521461239200</title>
<path fill="none" stroke="black" d="M341.5,-440.44C341.5,-437.6 341.5,-434.6 341.5,-431.59"/>
<polygon fill="black" stroke="black" points="345,-431.53 341.5,-421.53 338,-431.53 345,-431.53"/>
</g>
<!-- 140521463431344 -->
<g id="node3" class="node">
<title>140521463431344</title>
<polygon fill="none" stroke="black" points="187.5,-330.5 187.5,-366.5 495.5,-366.5 495.5,-330.5 187.5,-330.5"/>
<text text-anchor="middle" x="341.5" y="-344.8" font-family="Times,serif" font-size="14.00">expand_dims\naxes=((3, 3), (3, 4), (3, 5))</text>
</g>
<!-- 140521461239200&#45;&gt;140521463431344 -->
<g id="edge2" class="edge">
<title>140521461239200&#45;&gt;140521463431344</title>
<path fill="none" stroke="black" d="M341.5,-385.44C341.5,-382.6 341.5,-379.6 341.5,-376.59"/>
<polygon fill="black" stroke="black" points="345,-376.53 341.5,-366.53 338,-376.53 345,-376.53"/>
</g>
<!-- 140521944469280 -->
<g id="node4" class="node">
<title>140521944469280</title>
<polygon fill="none" stroke="black" points="0,-275.5 0,-311.5 683,-311.5 683,-275.5 0,-275.5"/>
<text text-anchor="middle" x="341.5" y="-289.8" font-family="Times,serif" font-size="14.00">transpose\nperm=(np.int64(1), np.int64(0), np.int64(2), np.int64(3), np.int64(4), np.int64(5))</text>
</g>
<!-- 140521463431344&#45;&gt;140521944469280 -->
<g id="edge3" class="edge">
<title>140521463431344&#45;&gt;140521944469280</title>
<path fill="none" stroke="black" d="M341.5,-330.44C341.5,-327.6 341.5,-324.6 341.5,-321.59"/>
<polygon fill="black" stroke="black" points="345,-321.53 341.5,-311.53 338,-321.53 345,-321.53"/>
</g>
<!-- 140521944469184 -->
<g id="node5" class="node">
<title>140521944469184</title>
<polygon fill="red" stroke="black" points="277.5,-220.5 277.5,-256.5 489.5,-256.5 489.5,-220.5 277.5,-220.5"/>
<text text-anchor="middle" x="383.5" y="-234.8" font-family="Times,serif" font-size="14.00">reduce_sum &#45; I0\naxes=(0,)</text>
</g>
<!-- 140521944469280&#45;&gt;140521944469184 -->
<g id="edge4" class="edge">
<title>140521944469280&#45;&gt;140521944469184</title>
<path fill="none" stroke="black" d="M355.02,-275.44C357.79,-271.94 360.77,-268.19 363.71,-264.48"/>
<polygon fill="black" stroke="black" points="366.54,-266.54 370.01,-256.53 361.05,-262.19 366.54,-266.54"/>
</g>
<!-- 140521458369264 -->
<g id="node9" class="node">
<title>140521458369264</title>
<polygon fill="red" stroke="black" points="359.5,-165.5 359.5,-201.5 963.5,-201.5 963.5,-165.5 359.5,-165.5"/>
<text text-anchor="middle" x="661.5" y="-179.8" font-family="Times,serif" font-size="14.00">matmul &#45; I1\naxes=() left=(1, 2) ndim=6 right=(2, 3)\n~aBCdef,abCDef&#45;\=aBCDef</text>
</g>
<!-- 140521944469184&#45;&gt;140521458369264 -->
<g id="edge7" class="edge">
<title>140521944469184&#45;&gt;140521458369264</title>
<path fill="none" stroke="black" d="M472.99,-220.44C501.39,-215.02 532.96,-209.01 562.01,-203.47"/>
<polygon fill="black" stroke="black" points="563.01,-206.84 572.18,-201.53 561.7,-199.96 563.01,-206.84"/>
</g>
<!-- 1 -->
<g id="node6" class="node">
<title>1</title>
<polygon fill="none" stroke="black" points="606.5,-330.5 606.5,-366.5 822.5,-366.5 822.5,-330.5 606.5,-330.5"/>
<text text-anchor="middle" x="714.5" y="-344.8" font-family="Times,serif" font-size="14.00">input 1\ncd\n[&#45;1 &#45;1 0 1 &#45;1 &#45;1]</text>
</g>
<!-- 140521944467792 -->
<g id="node7" class="node">
<title>140521944467792</title>
<polygon fill="none" stroke="black" points="687.5,-275.5 687.5,-311.5 741.5,-311.5 741.5,-275.5 687.5,-275.5"/>
<text text-anchor="middle" x="714.5" y="-289.8" font-family="Times,serif" font-size="14.00">id\n</text>
</g>
<!-- 1&#45;&gt;140521944467792 -->
<g id="edge5" class="edge">
<title>1&#45;&gt;140521944467792</title>
<path fill="none" stroke="black" d="M714.5,-330.44C714.5,-327.6 714.5,-324.6 714.5,-321.59"/>
<polygon fill="black" stroke="black" points="718,-321.53 714.5,-311.53 711,-321.53 718,-321.53"/>
</g>
<!-- 140521944469232 -->
<g id="node8" class="node">
<title>140521944469232</title>
<polygon fill="none" stroke="black" points="515,-220.5 515,-256.5 870,-256.5 870,-220.5 515,-220.5"/>
<text text-anchor="middle" x="692.5" y="-234.8" font-family="Times,serif" font-size="14.00">expand_dims\naxes=((0, 0), (0, 1), (2, 4), (2, 5))</text>
</g>
<!-- 140521944467792&#45;&gt;140521944469232 -->
<g id="edge6" class="edge">
<title>140521944467792&#45;&gt;140521944469232</title>
<path fill="none" stroke="black" d="M707.42,-275.44C706.16,-272.41 704.83,-269.2 703.49,-265.98"/>
<polygon fill="black" stroke="black" points="706.64,-264.42 699.57,-256.53 700.17,-267.11 706.64,-264.42"/>
</g>
<!-- 140521944469232&#45;&gt;140521458369264 -->
<g id="edge8" class="edge">
<title>140521944469232&#45;&gt;140521458369264</title>
<path fill="none" stroke="black" d="M682.52,-220.44C680.64,-217.22 678.63,-213.8 676.64,-210.38"/>
<polygon fill="black" stroke="black" points="679.53,-208.39 671.46,-201.53 673.49,-211.93 679.53,-208.39"/>
</g>
<!-- 140521458370272 -->
<g id="node14" class="node">
<title>140521458370272</title>
<polygon fill="red" stroke="black" points="564.5,-110.5 564.5,-146.5 1156.5,-146.5 1156.5,-110.5 564.5,-110.5"/>
<text text-anchor="middle" x="860.5" y="-124.8" font-family="Times,serif" font-size="14.00">matmul &#45; I2\naxes=(3,) left=(1, 2) ndim=6 right=(4,)\n~aBCdef,abcdEf&#45;\=aBCEf</text>
</g>
<!-- 140521458369264&#45;&gt;140521458370272 -->
<g id="edge12" class="edge">
<title>140521458369264&#45;&gt;140521458370272</title>
<path fill="none" stroke="black" d="M725.56,-165.44C745.09,-160.24 766.71,-154.48 786.82,-149.12"/>
<polygon fill="black" stroke="black" points="787.8,-152.49 796.56,-146.53 786,-145.72 787.8,-152.49"/>
</g>
<!-- 2 -->
<g id="node10" class="node">
<title>2</title>
<polygon fill="none" stroke="black" points="950.5,-330.5 950.5,-366.5 1168.5,-366.5 1168.5,-330.5 950.5,-330.5"/>
<text text-anchor="middle" x="1059.5" y="-344.8" font-family="Times,serif" font-size="14.00">input 2\ndef\n[&#45;1 &#45;1 &#45;1 0 1 2]</text>
</g>
<!-- 140521463435952 -->
<g id="node11" class="node">
<title>140521463435952</title>
<polygon fill="none" stroke="black" points="1032.5,-275.5 1032.5,-311.5 1086.5,-311.5 1086.5,-275.5 1032.5,-275.5"/>
<text text-anchor="middle" x="1059.5" y="-289.8" font-family="Times,serif" font-size="14.00">id\n</text>
</g>
<!-- 2&#45;&gt;140521463435952 -->
<g id="edge9" class="edge">
<title>2&#45;&gt;140521463435952</title>
<path fill="none" stroke="black" d="M1059.5,-330.44C1059.5,-327.6 1059.5,-324.6 1059.5,-321.59"/>
<polygon fill="black" stroke="black" points="1063,-321.53 1059.5,-311.53 1056,-321.53 1063,-321.53"/>
</g>
<!-- 140521458369600 -->
<g id="node12" class="node">
<title>140521458369600</title>
<polygon fill="none" stroke="black" points="905.5,-220.5 905.5,-256.5 1213.5,-256.5 1213.5,-220.5 905.5,-220.5"/>
<text text-anchor="middle" x="1059.5" y="-234.8" font-family="Times,serif" font-size="14.00">expand_dims\naxes=((0, 0), (0, 1), (0, 2))</text>
</g>
<!-- 140521463435952&#45;&gt;140521458369600 -->
<g id="edge10" class="edge">
<title>140521463435952&#45;&gt;140521458369600</title>
<path fill="none" stroke="black" d="M1059.5,-275.44C1059.5,-272.6 1059.5,-269.6 1059.5,-266.59"/>
<polygon fill="black" stroke="black" points="1063,-266.53 1059.5,-256.53 1056,-266.53 1063,-266.53"/>
</g>
<!-- 140521458369696 -->
<g id="node13" class="node">
<title>140521458369696</title>
<polygon fill="none" stroke="black" points="967.5,-165.5 967.5,-201.5 1151.5,-201.5 1151.5,-165.5 967.5,-165.5"/>
<text text-anchor="middle" x="1059.5" y="-179.8" font-family="Times,serif" font-size="14.00">reduce_sum\naxes=(5,)</text>
</g>
<!-- 140521458369600&#45;&gt;140521458369696 -->
<g id="edge11" class="edge">
<title>140521458369600&#45;&gt;140521458369696</title>
<path fill="none" stroke="black" d="M1059.5,-220.44C1059.5,-217.6 1059.5,-214.6 1059.5,-211.59"/>
<polygon fill="black" stroke="black" points="1063,-211.53 1059.5,-201.53 1056,-211.53 1063,-211.53"/>
</g>
<!-- 140521458369696&#45;&gt;140521458370272 -->
<g id="edge13" class="edge">
<title>140521458369696&#45;&gt;140521458370272</title>
<path fill="none" stroke="black" d="M995.44,-165.44C975.91,-160.24 954.29,-154.48 934.18,-149.12"/>
<polygon fill="black" stroke="black" points="935,-145.72 924.44,-146.53 933.2,-152.49 935,-145.72"/>
</g>
<!-- 140521697778416 -->
<g id="node15" class="node">
<title>140521697778416</title>
<polygon fill="none" stroke="black" points="519,-55.5 519,-91.5 1202,-91.5 1202,-55.5 519,-55.5"/>
<text text-anchor="middle" x="860.5" y="-69.8" font-family="Times,serif" font-size="14.00">transpose\nperm=(np.int64(0), np.int64(4), np.int64(1), np.int64(3), np.int64(2), np.int64(5))</text>
</g>
<!-- 140521458370272&#45;&gt;140521697778416 -->
<g id="edge14" class="edge">
<title>140521458370272&#45;&gt;140521697778416</title>
<path fill="none" stroke="black" d="M860.5,-110.44C860.5,-107.6 860.5,-104.6 860.5,-101.59"/>
<polygon fill="black" stroke="black" points="864,-101.53 860.5,-91.53 857,-101.53 864,-101.53"/>
</g>
<!-- 140521458370368 -->
<g id="node16" class="node">
<title>140521458370368</title>
<polygon fill="red" stroke="black" points="750.5,-0.5 750.5,-36.5 970.5,-36.5 970.5,-0.5 750.5,-0.5"/>
<text text-anchor="middle" x="860.5" y="-14.8" font-family="Times,serif" font-size="14.00">squeeze &#45; I&#45;1\naxes=(0, 3, 5)</text>
</g>
<!-- 140521697778416&#45;&gt;140521458370368 -->
<g id="edge15" class="edge">
<title>140521697778416&#45;&gt;140521458370368</title>
<path fill="none" stroke="black" d="M860.5,-55.44C860.5,-52.6 860.5,-49.6 860.5,-46.59"/>
<polygon fill="black" stroke="black" points="864,-46.53 860.5,-36.53 857,-46.53 864,-46.53"/>
</g>
</g>
</svg>
