<?xml version="1.0" encoding="UTF-8" standalone="no"?>
<!DOCTYPE svg PUBLIC "-//W3C//DTD SVG 1.1//EN"
 "http://www.w3.org/Graphics/SVG/1.1/DTD/svg11.dtd">
<!-- Generated by graphviz version 2.43.0 (0)
 -->
<!-- Title: %3 Pages: 1 -->
<svg width="429pt" height="405pt"
 viewBox="0.00 0.00 429.00 405.00" xmlns="http://www.w3.org/2000/svg" xmlns:xlink="http://www.w3.org/1999/xlink">
<g id="graph0" class="graph" transform="scale(1 1) rotate(0) translate(4 401)">
<title>%3</title>
<!-- I_0 -->
<g id="node1" class="node">
<title>I_0</title>
<path fill="#aaeeaa" stroke="#888888" d="M95,-397C95,-397 12,-397 12,-397 6,-397 0,-391 0,-385 0,-385 0,-371 0,-371 0,-365 6,-359 12,-359 12,-359 95,-359 95,-359 101,-359 107,-365 107,-371 107,-371 107,-385 107,-385 107,-391 101,-397 95,-397"/>
<text text-anchor="middle" x="53.5" y="-381.8" font-family="Times,serif" font-size="14.00" fill="#222222">x</text>
<text text-anchor="middle" x="53.5" y="-366.8" font-family="Times,serif" font-size="14.00" fill="#222222">FLOAT(3,10)</text>
</g>
<!-- MatMul_4 -->
<g id="node5" class="node">
<title>MatMul_4</title>
<path fill="#ee9999" stroke="#888888" d="M171,-334C171,-334 94,-334 94,-334 88,-334 82,-328 82,-322 82,-322 82,-310 82,-310 82,-304 88,-298 94,-298 94,-298 171,-298 171,-298 177,-298 183,-304 183,-310 183,-310 183,-322 183,-322 183,-328 177,-334 171,-334"/>
<text text-anchor="middle" x="132.5" y="-312.3" font-family="Times,serif" font-size="14.00" fill="#222222">MatMul(., .)</text>
</g>
<!-- I_0&#45;&gt;MatMul_4 -->
<g id="edge1" class="edge">
<title>I_0&#45;&gt;MatMul_4</title>
<path fill="none" stroke="black" d="M77.2,-359C84.97,-353.1 93.72,-346.45 101.93,-340.22"/>
<polygon fill="black" stroke="black" points="109.9,-334.17 104.66,-343.8 105.92,-337.19 101.93,-340.21 101.93,-340.21 101.93,-340.21 105.92,-337.19 99.21,-336.63 109.9,-334.17 109.9,-334.17"/>
<text text-anchor="middle" x="121.5" y="-345.4" font-family="Times,serif" font-size="7.00">FLOAT(3,10)</text>
</g>
<!-- i_1 -->
<g id="node2" class="node">
<title>i_1</title>
<path fill="#cccc00" stroke="#888888" d="M292,-397C292,-397 133,-397 133,-397 127,-397 121,-391 121,-385 121,-385 121,-371 121,-371 121,-365 127,-359 133,-359 133,-359 292,-359 292,-359 298,-359 304,-365 304,-371 304,-371 304,-385 304,-385 304,-391 298,-397 292,-397"/>
<text text-anchor="middle" x="212.5" y="-381.8" font-family="Times,serif" font-size="14.00" fill="#222222">p_layers_0_weight::T10</text>
<text text-anchor="middle" x="212.5" y="-366.8" font-family="Times,serif" font-size="14.00" fill="#222222">FLOAT(10, 32)</text>
</g>
<!-- i_1&#45;&gt;MatMul_4 -->
<g id="edge2" class="edge">
<title>i_1&#45;&gt;MatMul_4</title>
<path fill="none" stroke="black" d="M188.5,-359C180.63,-353.1 171.77,-346.45 163.46,-340.22"/>
<polygon fill="black" stroke="black" points="155.39,-334.17 166.09,-336.57 159.39,-337.17 163.39,-340.17 163.39,-340.17 163.39,-340.17 159.39,-337.17 160.69,-343.77 155.39,-334.17 155.39,-334.17"/>
<text text-anchor="middle" x="203" y="-345.4" font-family="Times,serif" font-size="7.00">FLOAT(10, 32)</text>
</g>
<!-- i_2 -->
<g id="node3" class="node">
<title>i_2</title>
<path fill="#cccc00" stroke="#888888" d="M409,-213C409,-213 250,-213 250,-213 244,-213 238,-207 238,-201 238,-201 238,-187 238,-187 238,-181 244,-175 250,-175 250,-175 409,-175 409,-175 415,-175 421,-181 421,-187 421,-187 421,-201 421,-201 421,-207 415,-213 409,-213"/>
<text text-anchor="middle" x="329.5" y="-197.8" font-family="Times,serif" font-size="14.00" fill="#222222">p_layers_2_weight::T10</text>
<text text-anchor="middle" x="329.5" y="-182.8" font-family="Times,serif" font-size="14.00" fill="#222222">FLOAT(32, 1)</text>
</g>
<!-- MatMul_7 -->
<g id="node8" class="node">
<title>MatMul_7</title>
<path fill="#ee9999" stroke="#888888" d="M299,-151C299,-151 222,-151 222,-151 216,-151 210,-145 210,-139 210,-139 210,-127 210,-127 210,-121 216,-115 222,-115 222,-115 299,-115 299,-115 305,-115 311,-121 311,-127 311,-127 311,-139 311,-139 311,-145 305,-151 299,-151"/>
<text text-anchor="middle" x="260.5" y="-129.3" font-family="Times,serif" font-size="14.00" fill="#222222">MatMul(., .)</text>
</g>
<!-- i_2&#45;&gt;MatMul_7 -->
<g id="edge7" class="edge">
<title>i_2&#45;&gt;MatMul_7</title>
<path fill="none" stroke="black" d="M308.42,-174.98C302.04,-169.52 294.94,-163.44 288.19,-157.68"/>
<polygon fill="black" stroke="black" points="280.5,-151.1 291.03,-154.18 284.3,-154.35 288.1,-157.6 288.1,-157.6 288.1,-157.6 284.3,-154.35 285.18,-161.02 280.5,-151.1 280.5,-151.1"/>
<text text-anchor="middle" x="321" y="-161.4" font-family="Times,serif" font-size="7.00">FLOAT(32, 1)</text>
</g>
<!-- i_3 -->
<g id="node4" class="node">
<title>i_3</title>
<path fill="#cccc00" stroke="#888888" d="M292,-335C292,-335 209,-335 209,-335 203,-335 197,-329 197,-323 197,-323 197,-309 197,-309 197,-303 203,-297 209,-297 209,-297 292,-297 292,-297 298,-297 304,-303 304,-309 304,-309 304,-323 304,-323 304,-329 298,-335 292,-335"/>
<text text-anchor="middle" x="250.5" y="-319.8" font-family="Times,serif" font-size="14.00" fill="#222222">layers.0.bias</text>
<text text-anchor="middle" x="250.5" y="-304.8" font-family="Times,serif" font-size="14.00" fill="#222222">FLOAT(32)</text>
</g>
<!-- Add_5 -->
<g id="node6" class="node">
<title>Add_5</title>
<path fill="#cccccc" stroke="#888888" d="M216,-273C216,-273 167,-273 167,-273 161,-273 155,-267 155,-261 155,-261 155,-249 155,-249 155,-243 161,-237 167,-237 167,-237 216,-237 216,-237 222,-237 228,-243 228,-249 228,-249 228,-261 228,-261 228,-267 222,-273 216,-273"/>
<text text-anchor="middle" x="191.5" y="-251.3" font-family="Times,serif" font-size="14.00" fill="#222222">Add(., .)</text>
</g>
<!-- i_3&#45;&gt;Add_5 -->
<g id="edge4" class="edge">
<title>i_3&#45;&gt;Add_5</title>
<path fill="none" stroke="black" d="M232.48,-296.98C227.26,-291.76 221.47,-285.97 215.93,-280.43"/>
<polygon fill="black" stroke="black" points="208.6,-273.1 218.86,-276.99 212.14,-276.64 215.68,-280.18 215.68,-280.18 215.68,-280.18 212.14,-276.64 212.49,-283.36 208.6,-273.1 208.6,-273.1"/>
<text text-anchor="middle" x="242.5" y="-283.4" font-family="Times,serif" font-size="7.00">FLOAT(32)</text>
</g>
<!-- MatMul_4&#45;&gt;Add_5 -->
<g id="edge3" class="edge">
<title>MatMul_4&#45;&gt;Add_5</title>
<path fill="none" stroke="black" d="M149.57,-297.93C155.02,-292.48 161.17,-286.33 167.05,-280.45"/>
<polygon fill="black" stroke="black" points="174.27,-273.23 170.38,-283.48 170.73,-276.77 167.2,-280.3 167.2,-280.3 167.2,-280.3 170.73,-276.77 164.02,-277.12 174.27,-273.23 174.27,-273.23"/>
<text text-anchor="middle" x="188.5" y="-283.4" font-family="Times,serif" font-size="7.00">FLOAT(3,32)</text>
</g>
<!-- Relu_6 -->
<g id="node7" class="node">
<title>Relu_6</title>
<path fill="#cccccc" stroke="#888888" d="M211.5,-212C211.5,-212 171.5,-212 171.5,-212 165.5,-212 159.5,-206 159.5,-200 159.5,-200 159.5,-188 159.5,-188 159.5,-182 165.5,-176 171.5,-176 171.5,-176 211.5,-176 211.5,-176 217.5,-176 223.5,-182 223.5,-188 223.5,-188 223.5,-200 223.5,-200 223.5,-206 217.5,-212 211.5,-212"/>
<text text-anchor="middle" x="191.5" y="-190.3" font-family="Times,serif" font-size="14.00" fill="#222222">Relu(.)</text>
</g>
<!-- Add_5&#45;&gt;Relu_6 -->
<g id="edge5" class="edge">
<title>Add_5&#45;&gt;Relu_6</title>
<path fill="none" stroke="black" d="M191.5,-236.93C191.5,-232.45 191.5,-227.49 191.5,-222.61"/>
<polygon fill="black" stroke="black" points="191.5,-212.23 196,-222.23 191.5,-217.23 191.5,-222.23 191.5,-222.23 191.5,-222.23 191.5,-217.23 187,-222.23 191.5,-212.23 191.5,-212.23"/>
<text text-anchor="middle" x="214.5" y="-223.4" font-family="Times,serif" font-size="7.00">FLOAT(3,32)</text>
</g>
<!-- Relu_6&#45;&gt;MatMul_7 -->
<g id="edge6" class="edge">
<title>Relu_6&#45;&gt;MatMul_7</title>
<path fill="none" stroke="black" d="M211.46,-175.93C217.98,-170.36 225.35,-164.05 232.36,-158.06"/>
<polygon fill="black" stroke="black" points="240.35,-151.23 235.67,-161.15 236.55,-154.48 232.75,-157.73 232.75,-157.73 232.75,-157.73 236.55,-154.48 229.82,-154.31 240.35,-151.23 240.35,-151.23"/>
<text text-anchor="middle" x="252.5" y="-161.4" font-family="Times,serif" font-size="7.00">FLOAT(3,32)</text>
</g>
<!-- Add_8 -->
<g id="node9" class="node">
<title>Add_8</title>
<path fill="#cccccc" stroke="#888888" d="M333,-91C333,-91 188,-91 188,-91 182,-91 176,-85 176,-79 176,-79 176,-67 176,-67 176,-61 182,-55 188,-55 188,-55 333,-55 333,-55 339,-55 345,-61 345,-67 345,-67 345,-79 345,-79 345,-85 339,-91 333,-91"/>
<text text-anchor="middle" x="260.5" y="-69.3" font-family="Times,serif" font-size="14.00" fill="#222222">Add(., [&#45;0.14222133])</text>
</g>
<!-- MatMul_7&#45;&gt;Add_8 -->
<g id="edge8" class="edge">
<title>MatMul_7&#45;&gt;Add_8</title>
<path fill="none" stroke="black" d="M260.5,-114.91C260.5,-110.7 260.5,-106.09 260.5,-101.52"/>
<polygon fill="black" stroke="black" points="260.5,-91.17 265,-101.17 260.5,-96.17 260.5,-101.17 260.5,-101.17 260.5,-101.17 260.5,-96.17 256,-101.17 260.5,-91.17 260.5,-91.17"/>
<text text-anchor="middle" x="281.5" y="-101.4" font-family="Times,serif" font-size="7.00">FLOAT(3,1)</text>
</g>
<!-- O_9 -->
<g id="node10" class="node">
<title>O_9</title>
<path fill="#aaaaee" stroke="#888888" d="M297.5,-38C297.5,-38 223.5,-38 223.5,-38 217.5,-38 211.5,-32 211.5,-26 211.5,-26 211.5,-12 211.5,-12 211.5,-6 217.5,0 223.5,0 223.5,0 297.5,0 297.5,0 303.5,0 309.5,-6 309.5,-12 309.5,-12 309.5,-26 309.5,-26 309.5,-32 303.5,-38 297.5,-38"/>
<text text-anchor="middle" x="260.5" y="-22.8" font-family="Times,serif" font-size="14.00" fill="#222222">output_0</text>
<text text-anchor="middle" x="260.5" y="-7.8" font-family="Times,serif" font-size="14.00" fill="#222222">FLOAT(3,1)</text>
</g>
<!-- Add_8&#45;&gt;O_9 -->
<g id="edge9" class="edge">
<title>Add_8&#45;&gt;O_9</title>
<path fill="none" stroke="black" d="M260.5,-54.97C260.5,-52.89 260.5,-50.72 260.5,-48.53"/>
<polygon fill="black" stroke="black" points="260.5,-38.32 265,-48.32 260.5,-43.32 260.5,-48.32 260.5,-48.32 260.5,-48.32 260.5,-43.32 256,-48.32 260.5,-38.32 260.5,-38.32"/>
</g>
</g>
</svg>
