<?xml version="1.0" encoding="UTF-8" standalone="no"?>
<!DOCTYPE svg PUBLIC "-//W3C//DTD SVG 1.1//EN"
 "http://www.w3.org/Graphics/SVG/1.1/DTD/svg11.dtd">
<!-- Generated by graphviz version 2.40.1 (20161225.0304)
 -->
<!-- Title: inheritance5c2320b141 Pages: 1 -->
<svg width="576pt" height="26pt"
 viewBox="0.00 0.00 576.00 25.58" xmlns="http://www.w3.org/2000/svg" xmlns:xlink="http://www.w3.org/1999/xlink">
<g id="graph0" class="graph" transform="scale(.9474 .9474) rotate(0) translate(4 23)">
<title>inheritance5c2320b141</title>
<!-- enum.Enum -->
<g id="node1" class="node">
<title>enum.Enum</title>
<g id="a_node1"><a xlink:title="Generic enumeration.">
<polygon fill="#ffffff" stroke="#000000" stroke-width=".5" points="75,-19 0,-19 0,0 75,0 75,-19"/>
<text text-anchor="middle" x="37.5" y="-7" font-family="Vera Sans, DejaVu Sans, Liberation Sans, Arial, Helvetica, sans" font-size="10.00" fill="#000000">enum.Enum</text>
</a>
</g>
</g>
<!-- enum.Flag -->
<g id="node2" class="node">
<title>enum.Flag</title>
<g id="a_node2"><a xlink:title="Support for flags">
<polygon fill="#ffffff" stroke="#000000" stroke-width=".5" points="179,-19 111,-19 111,0 179,0 179,-19"/>
<text text-anchor="middle" x="145" y="-7" font-family="Vera Sans, DejaVu Sans, Liberation Sans, Arial, Helvetica, sans" font-size="10.00" fill="#000000">enum.Flag</text>
</a>
</g>
</g>
<!-- enum.Enum&#45;&gt;enum.Flag -->
<g id="edge1" class="edge">
<title>enum.Enum&#45;&gt;enum.Flag</title>
<path fill="none" stroke="#000000" stroke-width=".5" d="M75.0983,-9.5C84.9977,-9.5 95.7028,-9.5 105.6897,-9.5"/>
<polygon fill="#000000" stroke="#000000" stroke-width=".5" points="105.8387,-11.2501 110.8386,-9.5 105.8386,-7.7501 105.8387,-11.2501"/>
</g>
<!-- enum.IntFlag -->
<g id="node3" class="node">
<title>enum.IntFlag</title>
<g id="a_node3"><a xlink:title="Support for integer&#45;based Flags">
<polygon fill="#ffffff" stroke="#000000" stroke-width=".5" points="295,-19 215,-19 215,0 295,0 295,-19"/>
<text text-anchor="middle" x="255" y="-7" font-family="Vera Sans, DejaVu Sans, Liberation Sans, Arial, Helvetica, sans" font-size="10.00" fill="#000000">enum.IntFlag</text>
</a>
</g>
</g>
<!-- enum.Flag&#45;&gt;enum.IntFlag -->
<g id="edge2" class="edge">
<title>enum.Flag&#45;&gt;enum.IntFlag</title>
<path fill="none" stroke="#000000" stroke-width=".5" d="M179.2017,-9.5C188.7614,-9.5 199.3042,-9.5 209.4102,-9.5"/>
<polygon fill="#000000" stroke="#000000" stroke-width=".5" points="209.6477,-11.2501 214.6476,-9.5 209.6476,-7.7501 209.6477,-11.2501"/>
</g>
<!-- onnxcustom.training.grad_helper.DerivativeOptions -->
<g id="node4" class="node">
<title>onnxcustom.training.grad_helper.DerivativeOptions</title>
<g id="a_node4"><a xlink:href="../onnxcustom/training/grad_helper.html#onnxcustom.training.grad_helper.DerivativeOptions" xlink:title="Options defining how to build the onnx graph of the" target="_top">
<polygon fill="#ffffff" stroke="#000000" stroke-width=".5" points="600,-19 331,-19 331,0 600,0 600,-19"/>
<text text-anchor="middle" x="465.5" y="-7" font-family="Vera Sans, DejaVu Sans, Liberation Sans, Arial, Helvetica, sans" font-size="10.00" fill="#000000">onnxcustom.training.grad_helper.DerivativeOptions</text>
</a>
</g>
</g>
<!-- enum.IntFlag&#45;&gt;onnxcustom.training.grad_helper.DerivativeOptions -->
<g id="edge3" class="edge">
<title>enum.IntFlag&#45;&gt;onnxcustom.training.grad_helper.DerivativeOptions</title>
<path fill="none" stroke="#000000" stroke-width=".5" d="M295.0889,-9.5C304.3988,-9.5 314.8302,-9.5 325.8248,-9.5"/>
<polygon fill="#000000" stroke="#000000" stroke-width=".5" points="325.914,-11.2501 330.914,-9.5 325.914,-7.7501 325.914,-11.2501"/>
</g>
</g>
</svg>
